<?xml version="1.0" standalone="no"?>
<svg xmlns:xlink="http://www.w3.org/1999/xlink" id="wave" style="transform:rotate(0deg); transition: 0.3s" viewBox="0 0 1440 310" version="1.1" xmlns="http://www.w3.org/2000/svg"><defs><linearGradient id="sw-gradient-0" x1="0" x2="0" y1="1" y2="0"><stop stop-color="rgba(185.939, 62, 243, 1)" offset="0%"/><stop stop-color="rgba(11, 75.197, 255, 1)" offset="100%"/></linearGradient></defs><path style="transform:translate(0, 0px); opacity:1" fill="url(#sw-gradient-0)" d="M0,186L120,165.3C240,145,480,103,720,77.5C960,52,1200,41,1440,46.5C1680,52,1920,72,2160,113.7C2400,155,2640,217,2880,206.7C3120,196,3360,114,3600,113.7C3840,114,4080,196,4320,191.2C4560,186,4800,93,5040,87.8C5280,83,5520,165,5760,175.7C6000,186,6240,124,6480,87.8C6720,52,6960,41,7200,51.7C7440,62,7680,93,7920,98.2C8160,103,8400,83,8640,87.8C8880,93,9120,124,9360,124C9600,124,9840,93,10080,77.5C10320,62,10560,62,10800,67.2C11040,72,11280,83,11520,118.8C11760,155,12000,217,12240,211.8C12480,207,12720,134,12960,124C13200,114,13440,165,13680,155C13920,145,14160,72,14400,56.8C14640,41,14880,83,15120,118.8C15360,155,15600,186,15840,165.3C16080,145,16320,72,16560,67.2C16800,62,17040,124,17160,155L17280,186L17280,310L17160,310C17040,310,16800,310,16560,310C16320,310,16080,310,15840,310C15600,310,15360,310,15120,310C14880,310,14640,310,14400,310C14160,310,13920,310,13680,310C13440,310,13200,310,12960,310C12720,310,12480,310,12240,310C12000,310,11760,310,11520,310C11280,310,11040,310,10800,310C10560,310,10320,310,10080,310C9840,310,9600,310,9360,310C9120,310,8880,310,8640,310C8400,310,8160,310,7920,310C7680,310,7440,310,7200,310C6960,310,6720,310,6480,310C6240,310,6000,310,5760,310C5520,310,5280,310,5040,310C4800,310,4560,310,4320,310C4080,310,3840,310,3600,310C3360,310,3120,310,2880,310C2640,310,2400,310,2160,310C1920,310,1680,310,1440,310C1200,310,960,310,720,310C480,310,240,310,120,310L0,310Z"/></svg>